<svg t="1693833006997" class="icon" viewBox="0 0 1651 1024" version="1.1" xmlns="http://www.w3.org/2000/svg" p-id="6634"
    width="200" height="200">
    <path
        d="M0 88.252201a88.252201 88.252201 0 0 1 88.252201-88.252201h1029.609016a88.252201 88.252201 0 0 1 88.252201 88.252201v558.930609a88.252201 88.252201 0 0 1-88.252201 88.252201H88.252201a88.252201 88.252201 0 0 1-88.252201-88.252201V88.252201z"
        fill="#C1D0FF" p-id="6635"></path>
    <path
        d="M0 764.852412m88.252201 0l1029.609016 0q88.252201 0 88.252201 88.252201l0 0q0 88.252201-88.252201 88.252201l-1029.609016 0q-88.252201 0-88.252201-88.252201l0 0q0-88.252201 88.252201-88.252201Z"
        fill="#C1D0FF" p-id="6636"></path>
    <path
        d="M1328.783978 232.515133c0 4.500862-0.147087 8.972307-0.411843 13.414335 106.343903 8.060368 190.124659 97.665769 190.124659 207.010247 0 111.286026-86.810749 202.156376-195.861052 207.363255-2.765236 0.147087-5.589306 0.235339-8.38396 0.23534H846.57395c-2.588731 0-5.118628-0.058835-7.648524-0.205922a211.95237 211.95237 0 0 1-8.82522 0.205922c-117.257758 0-212.334796-96.194899-212.334797-214.805858 0-118.640376 95.077038-214.805858 212.364214-214.805858 13.061326 0 26.093234 1.206113 38.919221 3.61834V233.868334v-1.353201C869.019427 104.137598 971.950911 0 1098.886994 0c126.936083 0 229.867567 104.10818 229.867567 232.515133z"
        fill="#0F62FE" p-id="6637"></path>
    <path
        d="M0 88.252201a88.252201 88.252201 0 0 1 88.252201-88.252201h1029.609016a88.252201 88.252201 0 0 1 88.252201 88.252201v558.930609a88.252201 88.252201 0 0 1-88.252201 88.252201H88.252201a88.252201 88.252201 0 0 1-88.252201-88.252201V88.252201z"
        fill="#E8E8E8" fill-opacity=".1" p-id="6638"></path>
    <path
        d="M1117.861217 29.4174H88.252201a58.834801 58.834801 0 0 0-58.834801 58.834801v558.930609a58.834801 58.834801 0 0 0 58.834801 58.834801h1029.609016a58.834801 58.834801 0 0 0 58.834801-58.834801V88.252201a58.834801 58.834801 0 0 0-58.834801-58.834801zM88.252201 0h1029.609016a88.252201 88.252201 0 0 1 88.252201 88.252201v558.930609a88.252201 88.252201 0 0 1-88.252201 88.252201H88.252201a88.252201 88.252201 0 0 1-88.252201-88.252201V88.252201a88.252201 88.252201 0 0 1 88.252201-88.252201z"
        fill="#FFFFFF" fill-opacity=".6" p-id="6639"></path>
    <path
        d="M0 853.104613a88.252201 88.252201 0 0 1 88.252201-88.252201h1029.609016a88.252201 88.252201 0 1 1 0 176.504402H88.252201a88.252201 88.252201 0 0 1-88.252201-88.252201z"
        fill="#E8E8E8" fill-opacity=".1" p-id="6640"></path>
    <path
        d="M1117.861217 794.269812a58.834801 58.834801 0 1 1 0 117.669602H88.252201a58.834801 58.834801 0 1 1 0-117.669602h1029.609016zM88.252201 764.852412a88.252201 88.252201 0 1 0 0 176.504402h1029.609016a88.252201 88.252201 0 1 0 0-176.504402H88.252201z"
        fill="#FFFFFF" fill-opacity=".6" p-id="6641"></path>
    <path
        d="M603.233214 117.669602c-20.062667 0-36.33049 16.267822-36.33049 36.330489v292.291291l-80.691929-90.164332c-16.238405-18.150536-47.950363-25.975565-70.778266-17.473936l-11.678708 4.353775c-22.827903 8.501629-28.18187 30.123418-11.914047 48.273954l159.118719 177.828186c14.679283 16.414909 41.97863 24.416442 63.953429 19.503737 17.268014-1.176696 34.85962-8.707551 45.655805-20.739268l159.118719-177.857603c16.238405-18.150536 10.884438-39.772325-11.943464-48.273954l-11.678708-4.353775c-22.827903-8.531046-54.510443-0.6766-70.778266 17.473936L639.534286 450.674575V154.000091c0-20.062667-16.238405-36.33049-36.301072-36.330489z"
        fill="#FFFFFF" p-id="6642"></path>
</svg>